<?xml version="1.0" encoding="iso-8859-1"?>
<!-- Generator: Adobe Illustrator 19.0.0, SVG Export Plug-In . SVG Version: 6.00 Build 0)  -->
<svg version="1.1" id="Capa_1" xmlns="http://www.w3.org/2000/svg" xmlns:xlink="http://www.w3.org/1999/xlink" x="0px" y="0px"
	 viewBox="0 0 512 512" style="enable-background:new 0 0 512 512;" xml:space="preserve">
<g>
	<g>
		<path d="M414.5,0h-317C43.738,0,0,43.738,0,97.5v317C0,468.262,43.738,512,97.5,512h317c53.762,0,97.5-43.738,97.5-97.5v-317
			C512,43.738,468.262,0,414.5,0z M497,414.5c0,45.49-37.01,82.5-82.5,82.5h-317C52.009,497,15,459.99,15,414.5v-317
			C15,52.01,52.009,15,97.5,15h317c45.49,0,82.5,37.01,82.5,82.5V414.5z"/>
	</g>
</g>
<g>
	<g>
		<path d="M449.804,340.232l-60-60c-2.147-2.146-5.371-2.789-8.174-1.625c-2.803,1.16-4.63,3.896-4.63,6.929v22.5h-48.167
			c-9.461,0-16.236-6.323-19.423-12.24l-6.432-11.945c-1.963-3.648-6.512-5.015-10.159-3.048c-3.648,1.964-5.012,6.512-3.048,10.159
			l6.432,11.945c5.239,9.731,16.563,20.129,32.63,20.129H384.5c4.143,0,7.5-3.357,7.5-7.5v-11.894l41.894,41.893L392,387.429
			v-11.894c0-4.143-3.357-7.5-7.5-7.5h-55.666c-30.023,0-57.708-16.782-72.252-43.798l-4.835-8.979
			c-1.964-3.648-6.513-5.016-10.159-3.048c-3.647,1.964-5.012,6.512-3.048,10.159l4.834,8.979
			c17.163,31.881,49.909,51.687,85.459,51.687H377v22.5c0,3.033,1.827,5.769,4.63,6.929c0.928,0.384,1.902,0.571,2.868,0.571
			c1.952,0,3.87-0.762,5.306-2.196l60-60C452.733,347.91,452.733,343.162,449.804,340.232z"/>
	</g>
</g>
<g>
	<g>
		<path d="M251.516,188.773c-23.412-37.74-63.917-60.272-108.349-60.272H67.5c-4.142,0-7.5,3.357-7.5,7.5v60
			c0,4.143,3.358,7.5,7.5,7.5h75.667c19.351,0,37.077,10.595,46.261,27.653l15.165,28.166c1.355,2.516,3.94,3.946,6.61,3.945
			c1.2,0,2.418-0.288,3.549-0.898c3.647-1.964,5.012-6.512,3.048-10.159l-15.165-28.166c-11.803-21.923-34.59-35.542-59.468-35.542
			H75v-45h68.167c39.206,0,74.945,19.881,95.603,53.181c2.183,3.519,6.806,4.603,10.327,2.419
			C252.617,196.917,253.7,192.294,251.516,188.773z"/>
	</g>
</g>
<g>
	<g>
		<path d="M449.804,160.231l-60-60c-2.147-2.145-5.371-2.788-8.174-1.625c-2.803,1.16-4.63,3.896-4.63,6.929V128.5h-48.167
			c-35.549,0-68.295,19.805-85.459,51.686l-53.946,100.196c-9.184,17.057-26.91,27.653-46.261,27.653H67.5
			c-4.142,0-7.5,3.357-7.5,7.5v60c0,4.143,3.358,7.5,7.5,7.5h75.667c46.985,0,90.016-25.711,112.298-67.099L309.41,215.74
			c3.187-5.917,9.962-12.24,19.423-12.24H377v22.034c0,3.033,1.827,5.769,4.63,6.929c2.804,1.163,6.028,0.52,8.174-1.625l60-60
			C452.733,167.909,452.733,163.161,449.804,160.231z M392,207.429V196c0-4.143-3.357-7.5-7.5-7.5h-55.666
			c-16.067,0-27.391,10.399-32.63,20.129l-53.945,100.196c-19.663,36.522-57.633,59.21-99.092,59.21H75v-45h68.167
			c24.878,0,47.665-13.619,59.468-35.542l53.946-100.196c14.544-27.015,42.23-43.797,72.252-43.797H384.5c4.143,0,7.5-3.357,7.5-7.5
			v-12.358l41.894,41.893L392,207.429z"/>
	</g>
</g>
<g>
</g>
<g>
</g>
<g>
</g>
<g>
</g>
<g>
</g>
<g>
</g>
<g>
</g>
<g>
</g>
<g>
</g>
<g>
</g>
<g>
</g>
<g>
</g>
<g>
</g>
<g>
</g>
<g>
</g>
</svg>
